<?xml version="1.0" encoding="UTF-8" standalone="no"?>
<!-- Created with Inkscape (http://www.inkscape.org/) -->

<svg
   version="1.1"
   id="svg321701"
   width="583.46155"
   height="603.6842"
   viewBox="0 0 583.46155 603.6842"
   sodipodi:docname="LogoTrileConPatasPlano.svg"
   inkscape:version="1.1.2 (0a00cf5339, 2022-02-04)"
   xmlns:inkscape="http://www.inkscape.org/namespaces/inkscape"
   xmlns:sodipodi="http://sodipodi.sourceforge.net/DTD/sodipodi-0.dtd"
   xmlns="http://www.w3.org/2000/svg"
   xmlns:svg="http://www.w3.org/2000/svg">
  <defs
     id="defs321705" />
  <sodipodi:namedview
     id="namedview321703"
     pagecolor="#505050"
     bordercolor="#ffffff"
     borderopacity="1"
     inkscape:pageshadow="0"
     inkscape:pageopacity="0"
     inkscape:pagecheckerboard="1"
     showgrid="false"
     inkscape:zoom="0.35355339"
     inkscape:cx="-8.4852813"
     inkscape:cy="494.97474"
     inkscape:window-width="1366"
     inkscape:window-height="710"
     inkscape:window-x="0"
     inkscape:window-y="0"
     inkscape:window-maximized="1"
     inkscape:current-layer="layer1" />
  <g
     id="layer1"
     inkscape:label="Silueta"
     style="display:inline"
     inkscape:groupmode="layer"
     transform="translate(-879.00716,-390.913)" />
  <g
     inkscape:groupmode="layer"
     id="layer2"
     inkscape:label="Manchas"
     transform="translate(-879.00716,-390.913)">
    <g
       id="g13738"
       transform="matrix(-1,0,0,1,2341.4759,0)">
      <path
         style="display:inline;fill:#000000;fill-opacity:1;stroke:none;stroke-width:3;stroke-linecap:butt;stroke-linejoin:miter;stroke-miterlimit:4;stroke-dasharray:none;stroke-opacity:1"
         d="m 879.00716,390.913 c 147.81034,6.13569 173.26874,-14.94232 241.01334,97.28832 250.9792,251.83567 152.3926,186.86386 342.4482,504.34171 -124.4174,24.03327 -95.5927,-170.43343 -225.3455,-186.34596 -86.4865,-2.64911 -100.3729,-3.34636 -149.3906,-40.49322 C 845.83289,582.96458 1078.1487,473.47807 879.00716,390.913 Z"
         id="path321744"
         sodipodi:nodetypes="cccccc"
         inkscape:label="Rutas" />
      <path
         style="display:inline;fill:#000000;fill-opacity:1;stroke:none;stroke-width:1px;stroke-linecap:butt;stroke-linejoin:miter;stroke-opacity:1"
         d="m 1204.5777,930.40207 c -1.1289,4.62737 3.4779,23.45024 0.022,20.76742 L 1028.6073,817.73538 c -1.5353,-1.16401 -1.1471,-1.31148 -0.6043,-2.83342 1.2565,-3.52302 -0.2519,-8.86859 0.7667,-12.06524 1.008,-2.57215 1.9536,-1.08939 2.9943,-0.41025 15.1458,11.11689 118.207,87.04133 172.285,126.49842 0.4912,0.3584 0.5753,1.28608 0.5287,1.47718 z"
         id="path1133"
         sodipodi:nodetypes="scssccss" />
      <path
         style="display:inline;fill:#000000;fill-opacity:1;stroke:#000000;stroke-width:1px;stroke-linecap:butt;stroke-linejoin:miter;stroke-opacity:1"
         d="m 1225.1755,794.19103 c -13.3161,7.74317 -84.2884,85.03709 -77.4495,97.28632 l -24.3921,-21.09853 c 2.1654,9.20334 70.4527,-51.70094 42.4288,-70.12863 z"
         id="path1776"
         sodipodi:nodetypes="ccccc" />
      <path
         style="display:inline;fill:#000000;fill-opacity:1;stroke:#000000;stroke-width:1.38145px;stroke-linecap:butt;stroke-linejoin:miter;stroke-opacity:1"
         d="m 1126.0565,790.15642 c -27.3397,5.64427 -53.3089,42.85334 -50.6935,47.8261 l -21.2441,-16.45984 c 10.3125,2.25769 58.9931,-41.24608 45.2126,-48.58012 z"
         id="path2989"
         sodipodi:nodetypes="ccccc" />
      <path
         style="fill:#ffee00;fill-opacity:1;stroke:none;stroke-width:1px;stroke-linecap:butt;stroke-linejoin:miter;stroke-opacity:1"
         d="m 1125.5327,567.90211 c -48.684,-16.72511 -53.7216,0.88375 -59.0028,16.38849 -38.18,-66.55702 17.1574,-80.03091 59.0028,-16.38849 z"
         id="path329428"
         sodipodi:nodetypes="ccc" />
    </g>
  </g>
</svg>
